<svg version="1.1" xmlns="http://www.w3.org/2000/svg" viewBox="-405.8057820446178 -9.642118206195036 731.2371582086033 20.53820149866418" fill="none" stroke="black" stroke-width="0.6%" vector-effect="non-scaling-stroke">
    <path d="M -400.38351 3.75322 L -13.39563 9.79083 A 22.5 0.26012 180 0 0 18.07783 9.84496 A 22.5 0.26012 180 0 0 22.15273 9.79988 L 319.40201 5.31093 A 22.5 0.26012 180 0 0 324.43138 5.14701" />
    <path d="M -400.38351 -6.24611 L -13.39563 -0.2085 A 22.5 0.26012 180 0 0 18.07783 -0.15437 A 22.5 0.26012 180 0 0 22.15273 -0.19945 L 319.40201 -4.6884 A 22.5 0.26012 180 0 0 324.43138 -4.85232 A 22.5 0.26012 180 0 0 320.0091 -5.00718 L 93.77004 -8.53686 A 22.5 0.26012 180 0 0 67.21317 -8.62294 L -390.78492 -6.64192 A 22.5 0.26012 180 0 0 -395.70152 -6.60997 A 22.5 0.26012 180 0 0 -404.80578 -6.40098 L -404.80578 3.59835 A 22.5 0.26012 180 0 0 -400.38351 3.75322 L -400.38351 -6.24611 Z" />
    <path d="M 22.15273 9.79988 L 22.15273 -0.19945" />
    <path d="M 319.40201 5.31093 L 319.40201 -4.6884" />
    <path d="M -404.80578 -6.40098 A 22.5 0.26012 180 0 0 -400.38351 -6.24611" />
    <path d="M -332.75459 -6.50172 A 22.5 0.26012 180 0 0 -341.85885 -6.29272 A 22.5 0.26012 180 0 0 -337.43658 -6.13786 L -4.03164 -0.93622 A 22.5 0.26012 180 0 0 27.44182 -0.8821 A 22.5 0.26012 180 0 0 32.37252 -0.94018 L 257.31087 -4.80967 A 22.5 0.26012 180 0 0 261.48445 -4.96057 A 22.5 0.26012 180 0 0 257.06218 -5.11544 L 84.40605 -7.80914 A 22.5 0.26012 180 0 0 59.17454 -7.9009 L -326.51263 -6.53934 A 22.5 0.26012 180 0 0 -332.75459 -6.50172 Z" />
    <path d="M -326.51263 -5.96743 L -326.51263 -6.53934" />
    <path d="M 59.17454 -1.40124 L 59.17454 -7.9009" />
    <path d="M -13.39563 9.79083 L -13.39563 -0.2085" />
    <path d="M 84.40605 -1.83528 L 84.40605 -7.80914" />
    <path d="M 257.06218 -4.80539 L 257.06218 -5.11544" />
    <path d="M 324.43138 -4.85232 L 324.43138 5.14701" />
</svg>